<svg xmlns="http://www.w3.org/2000/svg" viewBox="0 0 512 512" role="img" aria-label="Mjeksia Online icon">
  <defs>
    <linearGradient id="bg" x1="0" y1="0" x2="1" y2="1">
      <stop offset="0%" stop-color="#2563EB" />
      <stop offset="100%" stop-color="#1D4ED8" />
    </linearGradient>
  </defs>
  <rect width="512" height="512" rx="96" fill="url(#bg)" />
  <path
    d="M256 132c-17.7 0-32 14.3-32 32v60h-60c-17.7 0-32 14.3-32 32s14.3 32 32 32h60v60c0 17.7 14.3 32 32 32s32-14.3 32-32v-60h60c17.7 0 32-14.3 32-32s-14.3-32-32-32h-60v-60c0-17.7-14.3-32-32-32z"
    fill="#F8FAFC"
  />
  <circle cx="256" cy="256" r="170" fill="none" stroke="#BFDBFE" stroke-width="20" opacity="0.7" />
</svg>
